<svg xmlns="http://www.w3.org/2000/svg" viewBox="0 0 512 512">
  <rect width="512" height="512" rx="64" fill="#1A1410"/>
  <g transform="translate(256,280)">
    <!-- Tomato body -->
    <ellipse cx="0" cy="0" rx="140" ry="130" fill="#8B2E2E"/>
    <ellipse cx="0" cy="-10" rx="130" ry="120" fill="#A33A3A"/>
    <!-- Highlight -->
    <ellipse cx="-40" cy="-50" rx="40" ry="25" fill="#B84A4A" opacity="0.6"/>
    <!-- Stem -->
    <rect x="-8" y="-145" width="16" height="40" rx="4" fill="#4A6B3A"/>
    <!-- Leaves -->
    <path d="M0,-130 C-30,-160 -70,-140 -50,-110 C-40,-100 -10,-115 0,-130Z" fill="#5A7D4A"/>
    <path d="M0,-130 C30,-160 70,-140 50,-110 C40,-100 10,-115 0,-130Z" fill="#5A7D4A"/>
    <path d="M0,-135 C-15,-170 -45,-165 -30,-135 C-20,-125 -5,-130 0,-135Z" fill="#6B8E5A"/>
    <path d="M0,-135 C15,-170 45,-165 30,-135 C20,-125 5,-130 0,-135Z" fill="#6B8E5A"/>
  </g>
</svg>
